<svg width="130" height="130" viewBox="0 0 130 130" fill="none" xmlns="http://www.w3.org/2000/svg">
<path d="M64.6146 25.7019C83.6048 43.1266 97.0765 46.3009 101.439 45.7099L99.9472 55.6389C91.2965 63.6421 83.4162 86.8531 80.3963 97.3574L64.6146 104.61L48.8329 97.3574C45.813 86.8531 37.9631 63.8438 29.3124 55.8406L27.7907 45.7099C32.1528 46.3009 45.6244 43.1266 64.6146 25.7019Z" fill="url(#paint0_linear_2_378)"/>
<path d="M64.0731 32.1229C79.4328 46.1642 90.329 48.7221 93.8571 48.2459L92.6509 56.2469C85.654 62.6961 79.2803 84.415 76.8377 92.8796L64.0731 99.2724L51.3085 92.8796C48.8659 84.415 42.5167 62.8586 35.5198 56.4094L34.2891 48.2459C37.8172 48.7221 48.7134 46.1642 64.0731 32.1229Z" fill="url(#paint1_radial_2_378)"/>
<path fill-rule="evenodd" clip-rule="evenodd" d="M81.2356 30.4983L81.5083 31.0513C84.5014 37.1198 82.8627 43.2917 81.588 45.8079L82.984 48.856C85.3235 48.2156 88.0424 48.0868 90.5028 48.1852C93.0759 48.2882 95.3948 48.641 96.7512 48.9371L97.1063 49.0147L97.0337 49.3713C96.5881 51.5605 95.4729 53.0821 94.4713 54.0541C93.9708 54.5398 93.4976 54.8895 93.1476 55.1187C92.9725 55.2334 92.8279 55.3182 92.7256 55.3751C92.7201 55.3781 92.7148 55.381 92.7096 55.3839C92.2572 56.8779 90.5982 59.6862 87.105 60.163C85.4771 60.3851 84.358 60.1957 83.613 59.8011C83.4755 59.7282 83.3516 59.6488 83.2403 59.5644C83.4145 64.6423 82.1771 67.4735 80.9554 70.0154C80.8947 70.1417 80.8341 70.2671 80.7738 70.392C79.6118 72.798 78.5523 74.9919 78.8049 78.8098C80.1545 79.8467 80.9993 81.8675 81.4315 83.8992C81.8752 85.9852 81.9099 88.2054 81.5344 89.6403L81.5325 89.6475L81.5303 89.6547C80.6592 92.5079 78.0042 93.6795 76.6184 93.96C76.1315 94.9032 75.2831 95.6765 74.2913 96.3012C73.2351 96.9664 71.9875 97.4812 70.7613 97.8616C69.5337 98.2424 68.3153 98.4922 67.31 98.6224C66.8074 98.6875 66.354 98.7232 65.9763 98.7298C65.6565 98.7353 65.3694 98.7205 65.1485 98.6754C64.9234 98.7207 64.622 98.7353 64.283 98.7298C63.8818 98.7233 63.394 98.6878 62.85 98.6229C61.7617 98.4931 60.4316 98.244 59.0922 97.8641C57.7545 97.4848 56.3944 96.9714 55.2533 96.3079C54.1834 95.6858 53.2715 94.9118 52.7741 93.9601C51.3884 93.6799 48.7328 92.5083 47.8616 89.6547L47.8594 89.6475L47.8575 89.6403C47.4833 88.2104 47.4751 85.9934 47.8777 83.9061C48.2666 81.8899 49.0609 79.8791 50.3947 78.8328C50.4891 75.5076 49.5322 73.4457 48.4676 71.1518C48.3561 70.9117 48.2435 70.669 48.1308 70.4221C46.946 67.8268 45.7916 64.8309 45.9886 59.5646C45.8787 59.648 45.7564 59.7265 45.621 59.7986C44.8759 60.1949 43.7556 60.3856 42.1242 60.163C38.631 59.6862 36.972 56.8779 36.5196 55.3839C36.5144 55.381 36.5091 55.3781 36.5036 55.3751C36.4013 55.3182 36.2567 55.2334 36.0816 55.1187C35.7317 54.8895 35.2584 54.5398 34.7579 54.0541C33.7563 53.0821 32.6411 51.5605 32.1955 49.3713L32.1229 49.0147L32.4781 48.9371C33.8344 48.641 36.1533 48.2882 38.7264 48.1852C41.1869 48.0868 43.9058 48.2156 46.2453 48.856L47.6412 45.8079C46.3665 43.2917 44.7278 37.1198 47.7209 31.0513L47.9936 30.4983L55.6555 41.2532C58.3745 40.0577 61.5975 39.7231 64.6146 39.8134C67.6317 39.7231 70.8548 40.0577 73.5737 41.2532L81.2356 30.4983ZM54.9392 41.5183L48.1172 31.9425C45.6581 37.4786 47.0919 43.0157 48.2473 45.3716L51.5343 43.0679L54.9392 41.5183ZM48.2406 46.2694L48.2442 46.2745L51.9011 43.7115L55.3752 42.1304L55.3913 42.153L55.6515 42.0633C57.4687 41.4367 60.9056 40.6653 64.6146 40.5516C67.9304 40.6533 71.0286 41.2806 72.9467 41.86L72.9372 41.8809L76.967 43.7149L80.9936 46.2804L82.5792 49.7425L82.8859 49.6512C85.1811 48.9678 87.9401 48.8212 90.4734 48.9225C92.7835 49.0149 94.8823 49.3125 96.2307 49.5822C95.779 51.4016 94.8245 52.6838 93.9584 53.5243C93.4972 53.9719 93.0621 54.293 92.7442 54.5013C92.5853 54.6053 92.4561 54.6809 92.3681 54.7298C92.3241 54.7543 92.2904 54.772 92.2685 54.7833C92.2575 54.7889 92.2495 54.7929 92.2447 54.7953L92.2397 54.7978L92.0852 54.8716L92.0418 55.0373C91.7072 56.316 90.2226 58.9928 87.0055 59.4318C85.4672 59.6418 84.5194 59.4464 83.9576 59.1488C83.412 58.8598 83.2101 58.4654 83.1617 58.1856C83.1573 58.1295 83.1528 58.0732 83.148 58.0167L82.4124 58.0474C82.4124 58.1202 82.4179 58.1955 82.4293 58.2723C82.8774 64.0397 81.5843 67.0052 80.2913 69.6955C80.2301 69.8228 80.1688 69.9497 80.1077 70.0762C78.8565 72.6661 77.6569 75.1494 78.14 79.6696L78.6183 79.6183C79.6122 80.55 80.3205 82.2188 80.7107 84.0529C81.1389 86.066 81.1583 88.1582 80.8234 89.4461C80.0246 92.049 77.4885 93.0821 76.3125 93.2655L76.1168 93.296L76.0343 93.4763C75.6482 94.3193 74.8875 95.0539 73.8989 95.6766C72.9137 96.2971 71.7302 96.7885 70.5432 97.1567C69.3575 97.5245 68.1805 97.7656 67.2155 97.8906C66.7329 97.9531 66.3076 97.9861 65.9636 97.992C65.6108 97.9981 65.3716 97.975 65.2458 97.9407L65.1489 97.9142L65.052 97.9407C64.9274 97.9747 64.6754 97.9981 64.2949 97.992C63.9249 97.986 63.4631 97.9529 62.9371 97.8902C61.8853 97.7647 60.5934 97.5229 59.2931 97.1542C57.991 96.7849 56.6936 96.2921 55.6234 95.6698C54.5472 95.0441 53.7394 94.31 53.3576 93.4763L53.275 93.296L53.0794 93.2655C51.9034 93.0821 49.3673 92.049 48.5685 89.446C48.2321 88.1532 48.2133 86.0577 48.6013 84.046C48.9546 82.2142 49.6262 80.5517 50.6082 79.6219L51.0903 79.6573C51.3815 75.6737 50.2881 73.3205 49.138 70.8449C49.0258 70.6034 48.9131 70.3608 48.801 70.1154C47.5546 67.385 46.3476 64.2316 46.8008 58.2663C46.8116 58.1915 46.8169 58.1182 46.8169 58.0474L46.0811 58.0176C46.0767 58.0725 46.0724 58.1272 46.0682 58.1816C46.0211 58.4612 45.8206 58.8568 45.2752 59.147C44.7139 59.4456 43.7653 59.6422 42.2237 59.4318C39.0066 58.9928 37.5221 56.316 37.1874 55.0373L37.1441 54.8716L36.9902 54.7981L36.9895 54.7978L36.9846 54.7953C36.9797 54.7929 36.9717 54.7889 36.9607 54.7833C36.9388 54.772 36.9051 54.7543 36.8611 54.7298C36.7731 54.6809 36.6439 54.6053 36.4851 54.5013C36.1671 54.293 35.732 53.9719 35.2708 53.5243C34.4047 52.6838 33.4502 51.4016 32.9985 49.5822C34.3469 49.3125 36.4457 49.0149 38.7558 48.9225C41.2891 48.8212 44.0481 48.9678 46.3434 49.6512L46.65 49.7425L48.2406 46.2694ZM80.9719 45.392L77.3191 43.0645L74.1998 41.6449L81.112 31.9425C83.5782 37.4946 82.129 43.0477 80.9719 45.392Z" fill="#3D3D3D"/>
<path d="M48.2406 46.2694L48.2442 46.2745L51.9011 43.7115L55.3752 42.1304L55.3913 42.153L55.6515 42.0633C57.4687 41.4367 60.9056 40.6653 64.6146 40.5516C67.9304 40.6533 71.0286 41.2806 72.9467 41.86L72.9372 41.8809L76.967 43.7149L80.9936 46.2804L82.5792 49.7425L82.8859 49.6512C85.1811 48.9678 87.9401 48.8212 90.4734 48.9225C92.7835 49.0149 94.8823 49.3125 96.2307 49.5822C95.779 51.4016 94.8245 52.6838 93.9584 53.5243C93.4972 53.9719 93.0621 54.293 92.7442 54.5013C92.5853 54.6053 92.4561 54.6809 92.3681 54.7298C92.3241 54.7543 92.2904 54.772 92.2685 54.7833C92.2575 54.7889 92.2495 54.7929 92.2447 54.7953L92.2397 54.7978L92.0852 54.8716L92.0418 55.0373C91.7072 56.316 90.2226 58.9928 87.0055 59.4318C85.4672 59.6418 84.5194 59.4464 83.9576 59.1488C83.412 58.8598 83.2101 58.4654 83.1617 58.1856C83.1573 58.1295 83.1528 58.0732 83.148 58.0167L82.4124 58.0474C82.4124 58.1202 82.4179 58.1955 82.4293 58.2723C82.8774 64.0397 81.5843 67.0052 80.2913 69.6955C80.2301 69.8228 80.1688 69.9497 80.1077 70.0762C78.8565 72.6661 77.6569 75.1494 78.14 79.6696L78.6183 79.6183C79.6122 80.55 80.3205 82.2188 80.7107 84.0529C81.1389 86.066 81.1583 88.1582 80.8234 89.4461C80.0246 92.049 77.4885 93.0821 76.3125 93.2655L76.1168 93.296L76.0343 93.4763C75.6482 94.3193 74.8875 95.0539 73.8989 95.6766C72.9137 96.2971 71.7302 96.7885 70.5432 97.1567C69.3575 97.5245 68.1805 97.7656 67.2155 97.8906C66.7329 97.9531 66.3076 97.9861 65.9636 97.992C65.6108 97.9981 65.3716 97.975 65.2458 97.9407L65.1489 97.9142L65.052 97.9407C64.9274 97.9747 64.6754 97.9981 64.2949 97.992C63.9249 97.986 63.4631 97.9529 62.9371 97.8902C61.8853 97.7647 60.5934 97.5229 59.2931 97.1542C57.991 96.7849 56.6936 96.2921 55.6234 95.6698C54.5472 95.0441 53.7394 94.31 53.3576 93.4763L53.275 93.296L53.0794 93.2655C51.9034 93.0821 49.3673 92.049 48.5685 89.446C48.2321 88.1532 48.2133 86.0577 48.6013 84.046C48.9546 82.2142 49.6262 80.5517 50.6082 79.6219L51.0903 79.6573C51.3815 75.6737 50.2881 73.3205 49.138 70.8449C49.0258 70.6034 48.9131 70.3608 48.801 70.1154C47.5546 67.385 46.3476 64.2316 46.8008 58.2663C46.8116 58.1915 46.8169 58.1182 46.8169 58.0474L46.0811 58.0176C46.0767 58.0725 46.0724 58.1272 46.0682 58.1816C46.0211 58.4612 45.8206 58.8568 45.2752 59.147C44.7139 59.4456 43.7653 59.6422 42.2237 59.4318C39.0066 58.9928 37.5221 56.316 37.1874 55.0373L37.1441 54.8716L36.9902 54.7981L36.9895 54.7978L36.9846 54.7953C36.9797 54.7929 36.9717 54.7889 36.9607 54.7833C36.9388 54.772 36.9051 54.7543 36.8611 54.7298C36.7731 54.6809 36.6439 54.6053 36.4851 54.5013C36.1671 54.293 35.732 53.9719 35.2708 53.5243C34.4047 52.6838 33.4502 51.4016 32.9985 49.5822C34.3469 49.3125 36.4457 49.0149 38.7558 48.9225C41.2891 48.8212 44.0481 48.9678 46.3434 49.6512L46.65 49.7425L48.2406 46.2694Z" fill="#3A3A3A"/>
<path d="M74.1998 41.6449L81.112 31.9425C83.5782 37.4946 82.129 43.0477 80.9719 45.392L77.3191 43.0645L74.1998 41.6449Z" fill="#424242"/>
<path d="M48.1172 31.9425L54.9392 41.5183L51.5343 43.0679L48.2473 45.3716C47.0919 43.0157 45.6581 37.4786 48.1172 31.9425Z" fill="#4B4B4B"/>
<path fill-rule="evenodd" clip-rule="evenodd" d="M70.0174 92.0717C71.5825 92.1905 72.9853 92.3562 74.1573 92.5576C76.4569 91.2331 77.8712 89.431 77.8712 87.4454C77.8712 83.378 71.9361 80.0806 64.6146 80.0806C57.2932 80.0806 51.358 83.378 51.358 87.4454C51.358 89.3847 52.7072 91.1489 54.9126 92.4642C56.1876 92.2697 57.6937 92.1146 59.357 92.0108C60.6935 91.4659 62.5554 91.1278 64.6146 91.1278C66.7495 91.1278 68.6722 91.4912 70.0174 92.0717Z" fill="#F38D8D"/>
<ellipse cx="64.0731" cy="94.3987" rx="7.03986" ry="1.62458" fill="#F38D8D"/>
<path d="M44.4128 50.5802C44.7603 50.4751 45.1106 50.735 45.111 51.0979L45.1184 57.6525C45.1189 58.0977 44.6119 58.3533 44.2543 58.0881L37.9727 53.4301C37.6152 53.1649 37.7125 52.6055 38.1386 52.4767L44.4128 50.5802Z" fill="#F38D8D"/>
<path d="M83.9309 50.5802C83.5835 50.4751 83.2331 50.735 83.2327 51.0979L83.2253 57.6525C83.2248 58.0977 83.7318 58.3533 84.0894 58.0881L90.371 53.4301C90.7286 53.1649 90.6313 52.6055 90.2051 52.4767L83.9309 50.5802Z" fill="#F38D8D"/>
<path d="M46.8447 55.7637C49.2019 55.024 53.8417 56.2815 56.5214 58.3526C59.2508 60.3252 60.8387 67.4509 57.2658 78.6943L64.7094 77.9546L72.1531 78.6943C68.9081 68.4831 69.7741 61.6682 72.0049 59.0254C72.0866 58.8873 72.1896 58.7605 72.3033 58.6459C72.6571 58.2891 73.1138 58.0509 73.3463 57.9617C76.0543 56.383 79.7936 55.5318 81.8298 56.1707C82.7147 52.6531 78.5584 41.9111 65.09 42.4315C64.964 42.4364 64.8371 42.4423 64.7094 42.4491C64.424 42.4338 64.1424 42.4233 63.8645 42.4175C63.6889 42.4138 63.5149 42.412 63.3423 42.412L63.2842 42.412C50.594 42.4421 45.983 52.3384 46.8447 55.7637Z" fill="#D9D9D9"/>
<ellipse cx="53.5133" cy="64.6146" rx="2.9784" ry="2.70764" fill="#343434"/>
<ellipse cx="53.5133" cy="64.6146" rx="2.9784" ry="2.70764" fill="white"/>
<path d="M78.6944 64.6146C78.6944 66.11 77.3609 67.3222 75.716 67.3222C74.071 67.3222 72.7375 66.11 72.7375 64.6146C72.7375 63.1192 74.071 61.907 75.716 61.907C77.3609 61.907 78.6944 63.1192 78.6944 64.6146Z" fill="#343434"/>
<path d="M78.6944 64.6146C78.6944 66.11 77.3609 67.3222 75.716 67.3222C74.071 67.3222 72.7375 66.11 72.7375 64.6146C72.7375 63.1192 74.071 61.907 75.716 61.907C77.3609 61.907 78.6944 63.1192 78.6944 64.6146Z" fill="white"/>
<circle cx="53.5133" cy="64.8854" r="2.43688" fill="#343434"/>
<circle cx="53.5133" cy="64.8854" r="2.43688" fill="#161616"/>
<path d="M78.1528 64.8854C78.1528 66.2312 77.0618 67.3222 75.7159 67.3222C74.3701 67.3222 73.2791 66.2312 73.2791 64.8854C73.2791 63.5395 74.3701 62.4485 75.7159 62.4485C77.0618 62.4485 78.1528 63.5395 78.1528 64.8854Z" fill="#343434"/>
<path d="M78.1528 64.8854C78.1528 66.2312 77.0618 67.3222 75.7159 67.3222C74.3701 67.3222 73.2791 66.2312 73.2791 64.8854C73.2791 63.5395 74.3701 62.4485 75.7159 62.4485C77.0618 62.4485 78.1528 63.5395 78.1528 64.8854Z" fill="#161616"/>
<circle cx="54.0548" cy="63.8023" r="0.812292" fill="#5E5E5E"/>
<circle cx="75.7159" cy="63.8023" r="0.812292" fill="#5E5E5E"/>
<ellipse cx="58.6578" cy="88.1711" rx="2.16611" ry="2.43688" fill="#434343"/>
<ellipse cx="70.5714" cy="88.1711" rx="2.16611" ry="2.43688" fill="#434343"/>
<ellipse cx="59.1865" cy="45.497" rx="9.20598" ry="4.41887" transform="rotate(-15.0606 59.1865 45.497)" fill="#3A3A3A"/>
<defs>
<linearGradient id="paint0_linear_2_378" x1="27.7907" y1="65.1561" x2="101.439" y2="65.1561" gradientUnits="userSpaceOnUse">
<stop stop-color="#FF8585"/>
<stop offset="1" stop-color="#7B5709"/>
</linearGradient>
<radialGradient id="paint1_radial_2_378" cx="0" cy="0" r="1" gradientUnits="userSpaceOnUse" gradientTransform="translate(64.0731 63.9161) scale(29.784)">
<stop offset="0.445" stop-color="#C56262"/>
<stop offset="1" stop-color="#FF8A23"/>
</radialGradient>
</defs>
</svg>
